<svg height="1000" width="1000" xmlns="http://www.w3.org/2000/svg"><path d="m501.625 166.5625c1.6921.0046 1.6921.0046 3.4185.0092 18.3052.0727 35.94 1.0449 53.9565 4.4283 1.7666.3215 1.7666.3215 3.5688.6494 55.3998 10.3045 106.916 34.6306 150.4312 70.3506.5736.4692 1.1473.9384 1.7383 1.4219 15.3751 12.6819 30.1204 26.7436 42.2617 42.5781.9314 1.1461 1.8666 2.2891 2.8047 3.4297 5.4001 6.5869 10.5906 13.3015 15.5078 20.2578.4865.6712.9729 1.3424 1.4741 2.0339 3.2235 4.6537 3.2235 4.6537 3.1812 7.2764-1.4694 3.0399-3.6104 3.8342-6.5655 5.4006-.5767.3113-1.1534.6225-1.7477.9432-1.2468.6713-2.4968 1.3366-3.7496 1.9966-3.3458 1.7632-6.6684 3.5695-9.9948 5.3688-.6743.3631-1.3485.7261-2.0431 1.1002-6.0791 3.2814-12.0463 6.7384-17.9921 10.2553-10.8229 6.3773-21.784 12.4826-32.7773 18.5586-6.7385 3.7256-13.433 7.523-20.0977 11.3789 3.3583 6.9536 6.9129 13.7649 10.6875 20.5.3802.6819.7604 1.3638 1.1521 2.0664.3662.6484.7323 1.2968 1.1096 1.9649.4847.8594.4847.8594.9793 1.7363 1.2415 2.0073 2.633 3.8625 4.0715 5.7324 14.5898-8.8322 29.1627-17.6876 43.6523-26.6836 9.4113-5.8422 18.852-11.6367 28.2906-17.4346 2.8834-1.7749 5.762-3.5575 8.6391-5.3427 1.6393-1.0131 3.2787-2.0261 4.918-3.0391.7415-.4629 1.4829-.9259 2.2468-1.4028 5.027-3.0972 5.027-3.0972 7.2532-3.0972 13.4236 26.6203 22.9624 54.7607 28.75 84 .1867.934.3733 1.868.5657 2.8303 3.7565 20.1728 5.2402 40.2975 5.1218 60.7947-.0046 1.6921-.0046 1.6921-.0092 3.4185-.0727 18.3052-1.0449 35.94-4.4283 53.9565-.2143 1.1777-.4286 2.3554-.6494 3.5688-10.3045 55.3998-34.6306 106.916-70.3506 150.4312-.4692.5736-.9384 1.1473-1.4219 1.7383-12.685 15.3789-26.7501 30.106-42.5781 42.2617-1.0878.8959-2.1722 1.796-3.2539 2.6992-51.326 42.582-122.4959 72.3008-189.7461 72.3008 0-37.95 0-75.9 0-115-11.22 0-22.44 0-34 0v115c-8.4062 0-16.097-.5443-24.375-1.625-1.0088-.1315-1.0088-.1315-2.0379-.2657-62.1585-8.2124-120.1272-33.3304-168.5871-73.1093-.8604-.7038-.8604-.7038-1.7383-1.4219-15.3789-12.685-30.106-26.7501-42.2617-42.5781-.8959-1.0878-1.796-2.1722-2.6992-3.2539-34.0293-41.017-56.7361-91.6358-67.0508-143.7461-.1867-.934-.3733-1.868-.5657-2.8303-3.7565-20.1728-5.2402-40.2975-5.1218-60.7947.003-1.1281.0061-2.2562.0092-3.4185.0727-18.3052 1.0449-35.94 4.4283-53.9565.3215-1.7666.3215-1.7666.6494-3.5688 5.7691-31.0161 15.6688-60.5078 30.3506-88.4312 12.2156 6.9518 24.3845 13.9847 36.5566 21.0122 3.3298 1.9222 6.66 3.8438 9.9903 5.7651 1.0672.6157 2.1343 1.2314 3.2339 1.8658 2.1421 1.2356 4.2843 2.4709 6.4267 3.706 5.0461 2.9096 10.0904 5.8219 15.1285 8.7452 1.7808 1.0331 3.5622 2.0653 5.3437 3.0971 2.2329 1.2937 4.4647 2.5891 6.6953 3.8867 5.4638 3.1629 10.9401 6.1749 16.625 8.9219 1.9781-3.9314 3.9535-7.8641 5.9265-11.7981.6715-1.3379 1.3437-2.6755 2.0166-4.0127.9675-1.9228 1.9324-3.8469 2.8967-5.7712.5813-1.1574 1.1626-2.3147 1.7615-3.5071 1.4568-2.8753 1.4568-2.8753 2.3987-5.9109-.6107-.3403-1.2214-.6806-1.8506-1.0312-13.6534-7.614-27.2645-15.2959-40.8286-23.0677-7.3809-4.228-14.7815-8.4194-22.1958-12.5886-11.1405-6.2708-22.1465-12.763-33.125-19.3125 8.7114-14.312 18.9916-27.395 30-40 .6896-.8018 1.3793-1.6036 2.0898-2.4297 10.6555-12.1484 22.1457-23.6544 34.9102-33.5703 1.0912-.9004 2.1796-1.8043 3.2656-2.7109 41.0261-34.0165 91.6229-56.7242 143.7344-67.0391.934-.1867 1.868-.3733 2.8303-.5657 20.1728-3.7565 40.2975-5.2402 60.7947-5.1218z" fill="#09baf4"/><path d="m501.625 166.5625c1.6921.0046 1.6921.0046 3.4185.0092 18.3052.0727 35.94 1.0449 53.9565 4.4283 1.7666.3215 1.7666.3215 3.5688.6494 55.3998 10.3045 106.916 34.6306 150.4312 70.3506.5736.4692 1.1473.9384 1.7383 1.4219 15.3751 12.6819 30.1204 26.7436 42.2617 42.5781.9314 1.1461 1.8666 2.2891 2.8047 3.4297 5.4001 6.5869 10.5906 13.3015 15.5078 20.2578.4865.6712.9729 1.3424 1.4741 2.0339 3.2235 4.6537 3.2235 4.6537 3.1812 7.2764-1.4694 3.0399-3.6104 3.8342-6.5655 5.4006-.5767.3113-1.1534.6225-1.7477.9432-1.2468.6713-2.4968 1.3366-3.7496 1.9966-3.3458 1.7632-6.6684 3.5695-9.9948 5.3688-.6743.3631-1.3485.7261-2.0431 1.1002-6.0791 3.2814-12.0464 6.7383-17.9921 10.2553-8.5723 5.0538-17.2248 9.944-25.9375 14.75-9.4346 5.2057-18.7713 10.522-27.9375 16.1875-3.4484-3.3103-6.3455-6.6785-9.125-10.5625-4.4349-5.9864-9.249-11.5124-14.3994-16.8945-.9915-1.0368-1.9778-2.0786-2.959-3.125-8.6973-9.2546-18.1796-17.053-28.5166-24.418-.578-.412-1.156-.824-1.7515-1.2485-14.092-9.8758-29.8794-17.8314-45.811-24.2515-.7472-.3017-1.4943-.6034-2.2642-.9143-11.7853-4.5618-23.8437-7.2909-36.2983-9.2732-1.9007-.3181-1.9007-.3181-3.8398-.6426-11.4722-1.8726-22.7276-2.8433-34.3477-2.7949-.9172-.0039-1.8343-.0077-2.7793-.0117-13.3078.0183-26.1662 1.2305-39.2207 3.8242-1.0102.1988-1.0102.1988-2.0409.4017-10.859 2.1523-21.3709 4.7364-31.6466 8.9108-.7183.291-1.4367.582-2.1768.8818-25.2609 10.4197-48.3123 24.1606-68.3349 42.8213-2.1539 1.9883-4.357 3.8653-6.6133 5.7344-4.4016 3.8503-7.9689 8.2679-11.5532 12.874-1.4484 1.8502-2.9224 3.6787-4.396 5.5088-35.5193 44.6434-50.7908 101.2658-45.3867 157.75.6084 5.186 1.47 10.3045 2.4609 15.4297.1392.7683.2784 1.5366.4219 2.3281 7.4582 40.6061 28.1698 78.0485 56.5781 107.6719.756.7969.756.7969 1.5273 1.6099 12.1003 12.6999 25.581 23.1452 40.4727 32.3901.9803.6086.9803.6086 1.9805 1.2295 18.6976 11.4012 39.6589 19.9302 61.0195 24.7705 1.9143.4389 1.9143.4389 3.8672.8867 15.0087 3.1983 29.8406 4.422 45.1328 4.7383 1.5651.0383 3.1302.0774 4.6953.1172 3.7681.0943 7.5363.1789 11.3047.2578v1c-11.22 0-22.44 0-34 0v115c-8.4062 0-16.097-.5443-24.375-1.625-1.0088-.1315-1.0088-.1315-2.0379-.2657-62.1585-8.2124-120.1272-33.3304-168.5871-73.1093-.8604-.7038-.8604-.7038-1.7383-1.4219-15.3789-12.685-30.106-26.7501-42.2617-42.5781-.8959-1.0878-1.796-2.1722-2.6992-3.2539-34.0293-41.017-56.7361-91.6358-67.0508-143.7461-.1867-.934-.3733-1.868-.5657-2.8303-3.7565-20.1728-5.2402-40.2975-5.1218-60.7947.003-1.1281.0061-2.2562.0092-3.4185.0727-18.3052 1.0449-35.94 4.4283-53.9565.3215-1.7666.3215-1.7666.6494-3.5688 5.7691-31.0161 15.6688-60.5078 30.3506-88.4312 12.2156 6.9518 24.3845 13.9847 36.5566 21.0122 3.3298 1.9222 6.66 3.8438 9.9903 5.7651 1.0672.6157 2.1343 1.2314 3.2339 1.8658 2.1421 1.2356 4.2843 2.4709 6.4267 3.706 5.0461 2.9096 10.0904 5.8219 15.1285 8.7452 1.7808 1.0331 3.5622 2.0653 5.3437 3.0971 2.2329 1.2937 4.4647 2.5891 6.6953 3.8867 5.4638 3.1629 10.9401 6.1749 16.625 8.9219 1.9781-3.9314 3.9535-7.8641 5.9265-11.7981.6715-1.3379 1.3437-2.6755 2.0166-4.0127.9675-1.9228 1.9324-3.8469 2.8967-5.7712.5813-1.1574 1.1626-2.3147 1.7615-3.5071 1.4568-2.8753 1.4568-2.8753 2.3987-5.9109-.6107-.3403-1.2214-.6806-1.8506-1.0312-13.6534-7.614-27.2645-15.2959-40.8286-23.0677-7.3809-4.228-14.7815-8.4194-22.1958-12.5886-11.1405-6.2708-22.1465-12.763-33.125-19.3125 8.7114-14.312 18.9916-27.395 30-40 .6896-.8018 1.3793-1.6036 2.0898-2.4297 10.6555-12.1484 22.1457-23.6544 34.9102-33.5703 1.0912-.9004 2.1796-1.8043 3.2656-2.7109 41.0261-34.0165 91.6229-56.7242 143.7344-67.0391.934-.1867 1.868-.3733 2.8303-.5657 20.1728-3.7565 40.2975-5.2402 60.7947-5.1218z" fill="#08a3ee"/><path d="m798 349c13.4236 26.6203 22.9624 54.7607 28.75 84 .1867.934.3733 1.868.5657 2.8303 3.7565 20.1728 5.2402 40.2975 5.1218 60.7947-.0046 1.6921-.0046 1.6921-.0092 3.4185-.0727 18.3052-1.0449 35.94-4.4283 53.9565-.2143 1.1777-.4286 2.3554-.6494 3.5688-10.3045 55.3998-34.6306 106.916-70.3506 150.4312-.4692.5736-.9384 1.1473-1.4219 1.7383-12.685 15.3789-26.7501 30.106-42.5781 42.2617-1.0878.8959-2.1722 1.796-3.2539 2.6992-51.2089 42.4848-122.5872 72.5159-189.7461 72.3008-.07-14.8119-.123-29.6238-.1554-44.4358-.0155-6.8773-.0366-13.7546-.0709-20.6318-.0331-6.633-.0505-13.2659-.0583-19.899-.0056-2.5347-.0164-5.0693-.0326-7.6039-.0217-3.5415-.0248-7.0825-.0234-10.6241-.0108-1.0552-.0215-2.1104-.0327-3.1976.0042-.9633.0083-1.9266.0125-2.9192-.0027-.8379-.0055-1.6758-.0083-2.5391.457-2.6611 1.2449-3.5295 3.3691-5.1495 2.4858-.6125 2.4858-.6125 5.4609-.957 1.1007-.1396 2.2014-.2791 3.3355-.4229 1.1809-.1427 2.3619-.2855 3.5786-.4326 25.6107-3.4691 49.8917-11.9227 72.625-24.1875.5933-.314 1.1866-.6281 1.7979-.9517 26.4904-14.0917 50.8032-35.6623 68.2021-60.0483.418-.5843.836-1.1685 1.2666-1.7705 19.344-27.3606 31.7282-58.3273 37.7334-91.2295.2282-1.2117.4563-2.4234.6914-3.6719 5.8485-37.4628.0662-78.9561-14.9001-113.635-.6521-1.5422-1.2289-3.1159-1.7913-4.6931 1.3811-2.7622 3.0763-3.2467 5.8086-4.6641 6.2455-3.3265 12.2456-6.9765 18.2539-10.7109 1.1346-.7021 2.2693-1.4039 3.4043-2.1055 2.3479-1.4516 4.695-2.9045 7.0415-4.3584 5.4895-3.3996 10.9913-6.7792 16.4917-10.1611 2.1394-1.3163 4.2787-2.6327 6.418-3.9492 1.0691-.6579 2.1382-1.3158 3.2397-1.9937 2.9188-1.7964 5.8373-3.5933 8.7557-5.3904 2.3907-1.4721 4.7815-2.9441 7.1723-4.416 1.6844-1.0371 3.3687-2.0746 5.053-3.112 1.0228-.6297 2.0457-1.2594 3.0996-1.9082 1.3464-.8292 1.3464-.8292 2.72-1.6751.8387-.5133 1.6775-1.0266 2.5417-1.5554.8923-.5616 1.7845-1.1233 2.7039-1.7019 2.2961-1.2981 2.2961-1.2981 4.2961-1.2981z" fill="#08a3ee"/><g fill="#088fe7"><path d="m524 44c95.6499 0 192.2384 40.6937 266 100 .9526.758 1.9052 1.5159 2.8867 2.2969 5.9153 4.7592 11.5414 9.7578 17.0938 14.9297 2.2393 2.0804 4.5323 4.0866 6.8476 6.082 4.4308 3.8619 8.5909 7.9629 12.7344 12.1289.7161.7122 1.4321 1.4244 2.1699 2.1582 4.6292 4.6376 9.0031 9.4313 13.2676 14.4043.9495 1.0829 1.9 2.165 2.8516 3.2461 7.8014 8.9438 15.0601 18.2381 22.1484 27.7539.5377.7167 1.0754 1.4334 1.6294 2.1719 12.4913 16.7001 23.3252 34.3577 33.2207 52.7046 1.1131 2.0555 2.2449 4.0998 3.3804 6.143 6.7467 12.2795 12.3269 25.0787 17.7695 37.9805.4001.9476.8002 1.8952 1.2124 2.8716.3669.8893.7338 1.7786 1.1118 2.6948.3245.7845.6489 1.569.9832 2.3772.6926 2.0564.6926 2.0564.6926 5.0564-12.9375 4.6487-25.8844 9.2705-38.8376 13.875-3.2013 1.1388-6.4016 2.2802-9.6019 3.4219-5.2864 1.8844-10.5769 3.7566-15.8705 5.6208-2.0419.721-4.0825 1.4458-6.1217 2.1743-2.8605 1.0211-5.7254 2.0287-8.5917 3.033-.8524.3076-1.7047.6151-2.5829.932-.7865.2725-1.5731.545-2.3834.8258-.6817.2412-1.3633.4824-2.0656.731-2.3209.4609-3.7374.2062-5.9447-.6138-1.1057-1.6921-1.1057-1.6921-1.9727-3.918-.3362-.8309-.6724-1.6617-1.0188-2.5178-.5301-1.3621-.5301-1.3621-1.071-2.7517-14.224-34.7131-34.1508-67.7049-59.6719-95.3359-1.8382-2.0094-3.6167-4.048-5.3906-6.1133-4.4934-5.1466-9.2974-9.9697-14.125-14.8008-.8779-.8901-1.7557-1.7802-2.6602-2.6973-6.0492-6.0625-12.4032-11.5223-19.0898-16.8652-1.8151-1.5595-3.6282-3.1213-5.4375-4.6875-58.2654-48.4918-129.6098-69.3485-203.5625-78.3125 0-32.01 0-64.02 0-97z"/><path d="m942 373c10.1394 35.5383 17.0614 72.2708 17.2031 109.3398.007 1.2327.0141 2.4654.0213 3.7355.0174 3.9541.0244 7.9081.0256 11.8622.0007 1.01.0007 1.01.0013 2.0403.0069 19.8382-.2403 39.37-3.2513 59.0222-.2574 1.791-.2574 1.791-.52 3.6182-11.8723 81.8011-44.7181 158.0034-96.48 222.3818-.758.9526-1.5159 1.9052-2.2969 2.8867-4.7592 5.9153-9.7578 11.5414-14.9297 17.0938-2.0804 2.2393-4.0866 4.5323-6.082 6.8476-3.8619 4.4308-7.9629 8.5909-12.1289 12.7344-.7122.7161-1.4244 1.4321-2.1582 2.1699-4.6376 4.6292-9.428 9.0068-14.4043 13.2676-1.1996 1.0438-2.3989 2.088-3.5977 3.1328-1.1546.9978-2.3095 1.9952-3.4648 2.9922-.573.4989-1.146.9977-1.7363 1.5117-3.9141 3.3726-7.9592 6.4128-12.2012 9.3633-2.9706-2.8016-5.2241-5.6365-7.4375-9.0625-3.5642-5.4391-7.1972-10.8245-10.875-16.1875-.56-.8173-1.12-1.6347-1.697-2.4768-3.9316-5.7354-7.87-11.466-11.8125-17.1939-2.5319-3.6796-5.0572-7.3636-7.5764-11.052-.5782-.8462-1.1563-1.6925-1.752-2.5644-1.1165-1.635-2.2325-3.2704-3.3476-4.9063-3.1137-4.5591-6.2767-9.0757-9.502-13.5566 1.5021-3.7642 3.6168-5.5063 6.8047-7.9453 6.2973-5.0202 11.9701-10.5258 17.6391-16.2378 1.6793-1.69 3.3691-3.3691 5.0601-5.0474 6.6235-6.6155 12.6764-13.4286 18.4961-20.7695 1.5595-1.8151 3.1213-3.6282 4.6875-5.4375 58.7101-70.5431 84.5006-166.47 76.7852-257.0352-1.7833-18.821-4.8589-37.8639-9.6563-56.1718-.8164-3.3555-.8164-3.3555-.8164-7.3555.6453-.2261 1.2905-.4523 1.9553-.6853 6.2266-2.1822 12.453-4.3651 18.6792-6.5485 3.2896-1.1536 6.5793-2.307 9.8692-3.4599 18.5546-6.4981 18.5546-6.4981 37.0783-13.0836.7404-.265 1.4808-.53 2.2436-.803 3.2617-1.1679 6.5214-2.3409 9.7782-3.5225 1.0975-.394 2.1951-.7881 3.3259-1.1941 1.3803-.5003 1.3803-.5003 2.7886-1.0107 2.2817-.6924 2.2817-.6924 5.2817-.6924z"/><path d="m485 44v97c-17.325 1.98-17.325 1.98-35 4-68.1432 11.758-130.8782 39.0929-183 85-.9255.8134-1.8511 1.6268-2.8047 2.4648-12.4208 11.165-24.9817 22.8273-35.25 36.0352-2.1233 2.7287-4.3727 5.3213-6.6328 7.9375-23.0893 27.743-41.2376 60.9992-54.3125 94.5625-8.828-2.4465-17.3643-5.6383-25.9375-8.8398-1.5311-.5693-3.0623-1.1384-4.5935-1.7072-3.1945-1.1874-6.3882-2.3769-9.5813-3.568-4.0669-1.517-8.1351-3.0302-12.2039-4.542-3.1576-1.1734-6.3147-2.3483-9.4717-3.5236-1.4988-.5579-2.9977-1.1156-4.4967-1.6731-7.9433-2.9553-15.8692-5.9396-23.7154-9.1463 2.0548-6.4475 4.4342-12.6665 7.125-18.875.3954-.9135.7908-1.8269 1.1982-2.7681 16.2543-37.2971 37.1911-71.6593 62.6768-103.3569.758-.9526 1.5159-1.9052 2.2969-2.8867 4.7592-5.9153 9.7578-11.5414 14.9297-17.0938 2.0804-2.2393 4.0866-4.5323 6.082-6.8476 3.8619-4.4308 7.9629-8.5909 12.1289-12.7344.7122-.7161 1.4244-1.4321 2.1582-2.1699 4.6376-4.6292 9.4313-9.0031 14.4043-13.2676 1.0829-.9495 2.165-1.9 3.2461-2.8516 8.9438-7.8014 18.2381-15.0601 27.7539-22.1484.7167-.5377 1.4334-1.0754 2.1719-1.6294 16.7001-12.4913 34.3577-23.3252 52.7046-33.2207 2.0555-1.1131 4.0998-2.2449 6.143-3.3804 57.056-31.3717 126.7271-50.7695 191.9805-50.7695z"/><path d="m65 376c10.3921 2.395 20.5079 5.5617 30.6719 8.7617 1.7763.5565 3.5528 1.1128 5.3294 1.6687 4.6368 1.4518 9.2724 2.9078 13.9076 4.3646 4.7457 1.4908 9.4927 2.9776 14.2395 4.4648 9.2851 2.9095 18.5688 5.8235 27.8516 8.7402-.1996.8592-.3992 1.7184-.6049 2.6037-.7561 3.2668-1.5073 6.5346-2.2554 9.8032-.3213 1.3998-.6445 2.7991-.9698 4.198-20.8628 89.7929-5.5105 187.7164 42.8301 266.3951 11.0907 17.605 23.2454 34.3834 37 50 .8134.9255 1.6268 1.8511 2.4648 2.8047 11.3449 12.6209 23.1929 25.372 36.6993 35.6992 1.8359 1.4961 1.8359 1.4961 2.8359 3.4961-6.2488 8.4005-12.5522 16.7509-19 25-4.8911 6.258-9.7007 12.5679-14.4434 18.939-4.5203 6.0548-9.1629 12.0117-13.8378 17.9477-3.0886 3.9393-6.0095 7.9033-8.7188 12.1133-4.9221-1.5231-8.1075-4.3879-11.875-7.75-.6535-.5756-1.3069-1.1513-1.9802-1.7444-14.7178-13.0368-29.4627-26.4456-42.1448-41.5056-.8662-.9887-1.7325-1.9774-2.625-2.9961-7.8876-9.0197-15.2187-18.3969-22.375-28.0039-.5377-.7167-1.0754-1.4334-1.6294-2.1719-12.4913-16.7001-23.3252-34.3577-33.2207-52.7046-1.1131-2.0555-2.2449-4.0998-3.3804-6.143-25.5466-46.4618-40.2609-98.7375-47.7695-150.9805-.1652-1.078-.3303-2.156-.5005-3.2666-5.5763-37.5407-5.2438-79.2415.5005-116.7334.1716-1.194.3432-2.388.52-3.6182 2.8596-19.7026 6.1575-40.4143 12.48-59.3818z"/><path d="m306 802c4.119 1.4853 7.6823 3.5641 11.375 5.875 80.9811 49.4753 178.523 63.2614 270.625 42.125 35.4105-8.6532 68.5268-22.679 100.0371-40.8755 3.6322-2.0808 7.2995-4.0993 10.9629-6.1245 11.9167 15.1667 23.8333 30.3333 35.75 45.5.6816.8673.6816.8673 1.377 1.7522.9105 1.159 1.8206 2.3184 2.7304 3.478 2.3825 3.0358 4.7725 6.0653 7.1739 9.0862.7454.9407.7454.9407 1.5058 1.9004.9468 1.1946 1.8959 2.3874 2.8477 3.5781 2.4673 3.1184 4.6042 6.2796 6.6152 9.7051-6.8923 4.9828-13.9508 9.495-21.3125 13.75-1.5692.9084-1.5692.9084-3.1702 1.8352-52.2573 30.0471-108.8883 48.8446-168.5173 57.4148-1.078.1652-2.156.3303-3.2666.5005-37.5407 5.5763-79.2415 5.2438-116.7334-.5005-1.791-.2574-1.791-.2574-3.6182-.52-62.9813-9.1409-123.0086-30.7776-177.2568-63.98-.822-.4926-1.644-.9852-2.491-1.4927-1.1143-.6997-1.1143-.6997-2.2512-1.4135-.656-.4055-1.3119-.8109-1.9878-1.2286-.4603-.4505-.9207-.901-1.395-1.3652 0-4.438.597-5.3818 3.0078-8.9375.6503-.9678 1.3007-1.9355 1.9707-2.9326.7084-1.0329 1.4167-2.0657 2.1465-3.1299 1.0818-1.5996 1.0818-1.5996 2.1855-3.2314 5.7956-8.541 11.7093-16.9992 17.6543-25.4366 3.0369-4.3181 5.9766-8.6945 8.8829-13.1015 4.9722-7.4629 10.0777-14.837 15.1523-22.2305z"/></g><path d="m572 420c.807.6639 1.6139 1.3277 2.4453 2.0117 18.7989 15.9408 31.5928 39.4854 34.5547 63.9883.2011 1.6552.2011 1.6552.4063 3.3438 2.647 28.1555-5.8429 55.4815-23.7657 77.312-19.7458 23.3871-46.7856 36.4442-77.1406 39.0942-27.8733 1.7373-56.3989-7.4072-77.5-25.75-.8095-.6652-1.6191-1.3303-2.4531-2.0156-18.79-15.9538-31.5844-39.4763-34.5469-63.9844-.1341-1.1034-.2681-2.2069-.4062-3.3437-2.6471-28.1556 5.8428-55.4816 23.7656-77.3121 19.429-23.0119 45.9753-36.0684 75.8281-39.0317 28.3005-1.8022 57.3908 6.8263 78.8125 25.6875z" fill="#fbfdfe"/><path d="m503 420c2.8899 1.3318 2.8899 1.3318 5.8945 3.0273 1.1116.6222 2.2232 1.2443 3.3684 1.8853 1.1834.6746 2.3666 1.3496 3.5496 2.0249 1.2252.6912 2.4507 1.3818 3.6765 2.0718 8.4717 4.7805 16.8886 9.6522 25.24 14.6396 2.7139 1.6146 5.4355 3.2155 8.1577 4.8159 2.0378 1.1993 4.0755 2.3985 6.1133 3.5977.9756.5731 1.9512 1.1463 2.9563 1.7368.9013.5316 1.8026 1.0632 2.7312 1.6109.8082.4757 1.6165.9514 2.4492 1.4416 1.8633 1.1482 1.8633 1.1482 2.8633 2.1482.0951 2.5864.1256 5.146.1135 7.7327.0002.8097.0003 1.6194.0005 2.4536-.0007 2.6892-.0085 5.3784-.0163 8.0676-.0019 1.8595-.0033 3.7189-.0043 5.5784-.0039 4.904-.0137 9.808-.0247 14.712-.0102 5.0002-.0148 10.0004-.0199 15.0006-.0107 9.8184-.0278 19.6367-.0488 29.4551-3.5374 2.0456-7.0755 4.0903-10.614 6.134-1.1997.6931-2.3993 1.3865-3.5986 2.0801-1.1652.6738-2.3305 1.3472-3.4961 2.0202-1.7068.9857-3.4125 1.9734-5.1182 2.961-3.457 1.9662-6.9586 3.8304-10.5042 5.6316-2.9357 2.0635-3.5028 4.8589-4.6689 8.1731-2.45 2.7125-3.7807 2.9681-7.4375 3.5-3.5625-.5-3.5625-.5-6.5-2.5-2.2921-3.3339-2.8314-5.1006-2.5312-9.0625.8831-3.6505 2.3485-4.9406 5.4687-6.9375 2.0598.0442 2.0598.0442 4.4258.3008 7.0909.1405 12.0533-3.438 17.8867-7.1133 1.0577-.6426 2.1154-1.2852 3.2051-1.9473 1.9628-1.195 3.9203-2.3988 5.8703-3.6145.862-.5365 1.724-1.073 2.6121-1.6257 1.3423-.8463 1.3423-.8463 2.7117-1.7097 2.2883-1.2903 2.2883-1.2903 4.2883-1.2903.5219-9.2407.8864-18.4712 1.0596-27.7251.0852-4.3002.221-8.5854.48-12.8789 1.7041-17.7384 1.7041-17.7384-3.744-34.0033-6.3628-6.4795-15.1319-9.8464-23.4508-13.0623-4.1397-1.6466-7.8208-3.7206-11.5909-6.0687-1.5904-.9175-1.5904-.9175-3.2129-1.8535-.9829-.5678-1.9658-1.1357-2.9785-1.7207-1.0719-.6181-2.1437-1.2362-3.248-1.873-7.9749-4.6034-7.9749-4.6034-10.9866-6.4754-2.8175-1.6208-4.1259-1.8858-7.3279-1.3391-3.2731 1.9036-3.2731 1.9036-6 4 3.0587 2.3983 6.2307 4.3687 9.6016 6.3008 1.1183.641 2.2366 1.2821 3.3889 1.9426 1.2114.6899 2.4229 1.3796 3.6345 2.0691.6121.3498 1.2241.6995 1.8547 1.0599 6.9705 3.982 13.9694 7.9024 21.0476 11.6901.5971.3195 1.1942.6391 1.8094.9683 2.8526 1.5233 5.7104 3.036 8.5739 4.5388 1.0208.5403 2.0416 1.0807 3.0933 1.6374.8953.469 1.7907.938 2.7131 1.4212 2.1228 1.2755 3.6384 2.5365 5.283 4.3718-1.6919.874-1.6919.874-3.418 1.7656-8.9621 4.6583-17.8246 9.4507-26.582 14.4844-1.3297.7617-1.3297.7617-2.6863 1.5388-3.6484 2.0928-7.2908 4.193-10.9074 6.3401-1.4386.8334-1.4386.8334-2.9063 1.6836-.7734.4602-1.5469.9204-2.3437 1.3945-2.8164 1.0358-4.2703.5572-7.1563-.207-2.3298-1.1006-2.3298-1.1006-4.7461-2.4844-.9098-.5171-1.8197-1.0343-2.7571-1.5671-.9683-.5605-1.9366-1.121-2.9343-1.6985-1.0025-.574-2.005-1.1481-3.0378-1.7395-3.1808-1.827-6.3538-3.6665-9.5247-5.5105-1.0541-.6121-2.1083-1.2243-3.1943-1.855-3.0431-1.7713-6.0819-3.5496-9.1182-5.3325-1.4133-.8281-1.4133-.8281-2.8552-1.6729-.8689-.514-1.7378-1.028-2.6331-1.5576-.7648-.4514-1.5296-.9028-2.3176-1.3679-1.8816-1.2141-1.8816-1.2141-3.8816-3.2141 1.5506-1.0388 3.1161-2.0554 4.6875-3.0625.8701-.5685 1.7402-1.137 2.6367-1.7227 3.1705-1.4394 4.4245-1.3306 7.6758-.2148 3.375 2.125 3.375 2.125 4.9609 3.2578 3.3494 1.2191 5.5943.592 9.0391-.2578 3.2084-1.5505 6.1847-3.399 9.1875-5.3125.7934-.4866 1.5868-.9732 2.4043-1.4746 3.8833-2.4226 7.3549-4.7481 10.4082-8.2129-.7112-.2628-1.4223-.5256-2.155-.7964-2.984-1.2624-5.6049-2.7656-8.3645-4.4614-1.5324-.9378-1.5324-.9378-3.0957-1.8945-1.0551-.651-2.1102-1.302-3.1973-1.9727-1.0744-.6587-2.1489-1.3174-3.2559-1.9961-2.646-1.6229-5.2897-3.2493-7.9316-4.8789 4.3399-4.8542 9.3905-8.0217 14.9375-11.375.8811-.5582 1.7621-1.1163 2.6699-1.6914.8605-.5221 1.7209-1.0441 2.6074-1.582.7747-.4762 1.5493-.9523 2.3475-1.4429 3.258-1.2145 5.1002-.8179 8.4377.0913z" fill="#0e9deb"/><path d="m466 435c5.5062 3.2629 5.5062 3.2629 6.5508 6.9375.261 3.937-.3086 5.7176-2.6133 9-4.5299 3.1806-8.5348 3.0625-13.9375 3.0625-5.94 3.3-11.88 6.6-18 10-.33 24.09-.66 48.18-1 73 1.65.66 3.3 1.32 5 2 1.5737.8206 3.132 1.6712 4.6758 2.5469.8985.5083 1.7971 1.0166 2.7229 1.5403 1.4423.8231 1.4423.8231 2.9138 1.6628 1.006.5713 2.0121 1.1426 3.0486 1.7312 8.3816 4.7724 16.7207 9.6171 25.0405 14.4963 5.303 3.1093 10.622 6.188 15.9614 9.2342.9623.5494.9623.5494 1.9441 1.1099 1.5641.893 3.1285 1.7858 4.6929 2.6784-.0289-.8717-.0577-1.7435-.0875-2.6416-.2611-8.238-.4587-16.4745-.5861-24.7157-.0677-4.2367-.1594-8.47-.3071-12.7047-.1419-4.0917-.2191-8.1801-.2527-12.2741-.0239-1.5569-.0706-3.1136-.1411-4.6691-.2122-4.8836-.1716-9.2923 1.3745-13.9948 3.9361-3.7966 8.01-5.7482 13-8 2.2233-1.2339 4.3906-2.5403 6.5703-3.8516 2.1838-1.2597 4.3687-2.5175 6.5547-3.7734 1.0893-.6291 2.1785-1.2581 3.3008-1.9062 6.8116-3.9226 13.6687-7.7022 20.5742-11.4688v58c-3.63 1.98-7.26 3.96-11 6 0-14.85 0-29.7 0-45-3.96 1.98-3.96 1.98-8 4-.66 0-1.32 0-2 0v47c-7 4-7 4-9 4-.33-14.52-.66-29.04-1-44-7.9991 3.7764-7.9991 3.7764-8.9193 8.0598.0362 1.1403.0724 2.2805.1097 3.4553.029 1.9476.029 1.9476.0586 3.9346.0429 1.0335.0429 1.0335.0867 2.0879.0873 2.171.1206 4.3369.1395 6.5095.0636 6.1692.228 12.3348.4179 18.5012.1127 3.7798.1664 7.5569.1861 11.3382.02 1.435.0631 2.8698.1302 4.3033.2108 4.5075.2049 8.5042-1.2094 12.8102-3.5589 3.4814-7.2287 5.5905-12 7-3.863-.3817-6.5085-1.6534-9.8242-3.6328-1.3998-.8271-1.3998-.8271-2.8279-1.6709-1.0017-.601-2.0034-1.2021-3.0354-1.8213-2.161-1.2794-4.3225-2.558-6.4844-3.8359-1.1208-.6649-2.2417-1.3297-3.3965-2.0147-5.5976-3.3022-11.2338-6.5369-16.8691-9.7744-2.9964-1.7216-5.9886-3.4423-8.9508-5.2222-2.5667-1.4994-5.1662-2.7349-7.8912-3.9203-11.2402-5.2012-11.2402-5.2012-13.7088-10.0478-1.5647-5.5365-1.2946-11.2126-1.1289-16.9113-.0013-1.8274-.0082-3.6548-.0205-5.4822-.007-3.8169.0449-7.6269.1411-11.4426.1195-4.8766.105-9.7417.0481-14.6191-.0315-3.7689.0009-7.5352.0531-11.3038.0187-1.7963.0194-3.5929.0013-5.3893-.0641-11.2876-.0641-11.2876 1.8941-15.9114 3.9288-3.9508 7.8408-5.8619 13-8 7.5073-3.1844 7.5073-3.1844 12.375-9.125.3094-1.4231.3094-1.4231.625-2.875 3.4745-3.6675 5.9694-4.924 11-4z" fill="#0faaef"/><path d="m447 475c8.9442 4.3564 17.6331 8.9704 26.1875 14.0625 7.5316 4.4601 15.1066 8.7843 22.8125 12.9375v23c-4.95-2.475-4.95-2.475-10-5 0-3.96 0-7.92 0-12-.8696-.2628-1.7393-.5256-2.6353-.7964-3.3504-1.1985-6.142-2.6526-9.2006-4.4614-1.4394-.8452-1.4394-.8452-2.9078-1.7075-1.1983-.7127-2.3966-1.4254-3.6313-2.1597-5.7544-3.4031-5.7544-3.4031-11.625-6.875v34c1.98.66 3.96 1.32 6 2 2.1306 1.0815 2.1306 1.0815 4.0586 2.2422 1.0741.64 1.0741.64 2.1699 1.293.729.4421 1.4579.8843 2.209 1.3398 1.4568.8728 2.9138 1.7452 4.3711 2.6172.6985.4199 1.397.8398 2.1167 1.2724 3.0015 1.7873 6.0353 3.5135 9.0747 5.2354 0-2.97 0-5.94 0-9l10 5v22c-8.1767-4.0002-16.099-8.2509-23.9375-12.875-.9816-.5736-1.9632-1.1473-2.9746-1.7383-2.006-1.1766-3.9935-2.3853-5.9617-3.624-3.1129-1.8858-3.1129-1.8858-6.7466-2.9707-4.0527-1.6117-7.1518-2.9834-9.3796-6.792-2.091-8.7482-1.2819-18.062-.8926-26.9724.1337-3.3844.1925-6.7701.2578-10.1565.143-6.627.3602-13.2483.6348-19.8711z" fill="#0daff1"/><path d="m514.6689 461.7627c1.1539.6125 1.1539.6125 2.3311 1.2373 1.2162.6381 1.2162.6381 2.457 1.2891 1.166.6613 1.166.6613 2.3555 1.3359.7902.446 1.5804.892 2.3945 1.3516.5917.3377 1.1834.6754 1.793 1.0234v2c-1.7566 1.281-1.7566 1.281-4.1992 2.7148-1.3197.7822-1.3197.7822-2.666 1.5801-.9314.5421-1.8627 1.0841-2.8223 1.6426-.912.5382-1.824 1.0764-2.7637 1.6309-1.7131 1.0104-3.428 2.0178-5.1452 3.0212-1.7117 1.0044-3.4052 2.0399-5.0855 3.0959-2.3181 1.3145-2.3181 1.3145-4.2712 1.1934-2.6985-1.1587-5.234-2.5074-7.7969-3.9414-.9848-.5479-1.9697-1.0957-2.9844-1.6602-.7476-.4215-1.4953-.843-2.2656-1.2773 4.3791-4.6588 9.4888-7.6079 14.9375-10.875.9894-.6187 1.9787-1.2375 2.998-1.875.9585-.5749 1.9169-1.1498 2.9043-1.7422.8701-.5296 1.7401-1.0593 2.6365-1.605 2.5237-.9028 2.5237-.9028 5.1926-.1401z" fill="#f7fafe"/></svg>